<svg id="Layer_1" data-name="Layer 1" xmlns="http://www.w3.org/2000/svg" viewBox="0 0 632.9 765.28"><defs><style>.cls-1{font-size:16px;}.cls-1,.cls-2{fill:#231f20;font-family:Anonymous, Anonymous;}.cls-2{font-size:11px;}.cls-3{font-family:Roboto-Thin, Roboto;}</style></defs><title>math formulas</title><text class="cls-1" transform="translate(0.32 14.22)">QUADRANT FORMULAS</text><text class="cls-2" transform="translate(1.32 34.33)">sin(180 - <tspan class="cls-3" x="73.4" y="0">Ѳ</tspan><tspan x="80.72" y="0" xml:space="preserve">) =  sin</tspan><tspan class="cls-3" x="139.44" y="0">Ѳ</tspan><tspan x="0" y="13.2">cos(180 - </tspan><tspan class="cls-3" x="73.4" y="13.2">Ѳ</tspan><tspan x="80.72" y="13.2">) = -cos</tspan><tspan class="cls-3" x="139.44" y="13.2">Ѳ</tspan><tspan x="0" y="26.4">tan(180 - </tspan><tspan class="cls-3" x="73.4" y="26.4">Ѳ</tspan><tspan x="80.72" y="26.4">) = -tan</tspan><tspan class="cls-3" x="139.44" y="26.4">Ѳ</tspan></text><text class="cls-2" transform="translate(1.32 116)">tan<tspan class="cls-3" x="22.02" y="0">Ѳ</tspan><tspan x="29.35" y="0" xml:space="preserve">   = sin</tspan><tspan class="cls-3" x="88.06" y="0">Ѳ </tspan><tspan x="98.02" y="0">/ cos</tspan><tspan class="cls-3" x="134.72" y="0">Ѳ</tspan><tspan x="0" y="13.2">cot</tspan><tspan class="cls-3" x="22.02" y="13.2">Ѳ</tspan><tspan x="29.35" y="13.2" xml:space="preserve">   =    1/ tan</tspan><tspan class="cls-3" x="132.1" y="13.2">Ѳ</tspan><tspan x="0" y="26.4">sec</tspan><tspan class="cls-3" x="22.02" y="26.4">Ѳ</tspan><tspan x="29.35" y="26.4" xml:space="preserve">   =    1/ cos</tspan><tspan class="cls-3" x="132.1" y="26.4">Ѳ</tspan><tspan x="0" y="39.6">cosec</tspan><tspan class="cls-3" x="36.7" y="39.6">Ѳ</tspan><tspan x="44.03" y="39.6" xml:space="preserve"> =    1/ sin</tspan><tspan class="cls-3" x="132.1" y="39.6">Ѳ</tspan></text><text class="cls-2" transform="translate(172.82 34.33)">sin(180 + <tspan class="cls-3" x="73.4" y="0">Ѳ</tspan><tspan x="80.72" y="0">) = -sin</tspan><tspan class="cls-3" x="139.44" y="0">Ѳ</tspan><tspan x="0" y="13.2">cos(180 + </tspan><tspan class="cls-3" x="73.4" y="13.2">Ѳ</tspan><tspan x="80.72" y="13.2">) = -cos</tspan><tspan class="cls-3" x="139.44" y="13.2">Ѳ</tspan><tspan x="0" y="26.4">tan(180 + </tspan><tspan class="cls-3" x="73.4" y="26.4">Ѳ</tspan><tspan x="80.72" y="26.4" xml:space="preserve">) =  tan</tspan><tspan class="cls-3" x="139.44" y="26.4">Ѳ</tspan></text><text class="cls-2" transform="translate(359.57 34.33)">sin(360 - <tspan class="cls-3" x="73.4" y="0">Ѳ</tspan><tspan x="80.72" y="0">) = -sin</tspan><tspan class="cls-3" x="139.44" y="0">Ѳ</tspan><tspan x="0" y="13.2">cos(360 - </tspan><tspan class="cls-3" x="73.4" y="13.2">Ѳ</tspan><tspan x="80.72" y="13.2" xml:space="preserve">) =  cos</tspan><tspan class="cls-3" x="139.44" y="13.2">Ѳ</tspan><tspan x="0" y="26.4">tan(360 - </tspan><tspan class="cls-3" x="73.4" y="26.4">Ѳ</tspan><tspan x="80.72" y="26.4">) = -tan</tspan><tspan class="cls-3" x="139.44" y="26.4">Ѳ</tspan></text><text class="cls-1" transform="translate(0.32 96.72)">BASIC FORMULAS</text><text class="cls-2" transform="translate(3.82 278.92)">cos²<tspan class="cls-3" x="29.36" y="0">Ѳ</tspan><tspan x="36.69" y="0" xml:space="preserve"> = 1- sin²</tspan><tspan class="cls-3" x="110.08" y="0">Ѳ</tspan><tspan x="117.41" y="0"> </tspan><tspan x="0" y="13.2">sin²</tspan><tspan class="cls-3" x="29.36" y="13.2">Ѳ</tspan><tspan x="36.69" y="13.2" xml:space="preserve"> = 1- cos²</tspan><tspan class="cls-3" x="110.08" y="13.2">Ѳ</tspan></text><text class="cls-2" transform="translate(172.82 278.67)">cosec²<tspan class="cls-3" x="44.04" y="0">Ѳ</tspan><tspan x="51.37" y="0" xml:space="preserve"> = 1 + cot²</tspan><tspan class="cls-3" x="132.1" y="0">Ѳ</tspan><tspan x="139.43" y="0"> </tspan><tspan x="0" y="13.2">cot²</tspan><tspan class="cls-3" x="29.36" y="13.2">Ѳ</tspan><tspan x="36.69" y="13.2" xml:space="preserve">   = 1 + cosec²</tspan><tspan class="cls-3" x="146.78" y="13.2">Ѳ</tspan></text><text class="cls-2" transform="translate(359.57 278.67)">sec²<tspan class="cls-3" x="29.36" y="0">Ѳ</tspan><tspan x="36.69" y="0" xml:space="preserve"> = 1 + tan²</tspan><tspan class="cls-3" x="117.42" y="0">Ѳ</tspan><tspan x="124.75" y="0"> </tspan><tspan x="0" y="13.2">tan²</tspan><tspan class="cls-3" x="29.36" y="13.2">Ѳ</tspan><tspan x="36.69" y="13.2" xml:space="preserve"> = 1 + sec²</tspan><tspan class="cls-3" x="117.42" y="13.2">Ѳ</tspan></text><text class="cls-1" transform="translate(2.82 261.06)">PYTHAGOREAN IDENTITIES</text><text class="cls-2" transform="translate(3.82 202.46)">sin0 = 0<tspan x="0" y="13.2">cos0 = 1</tspan><tspan x="0" y="26.4">tan0 = 0</tspan></text><text class="cls-2" transform="translate(97.99 202.46)">sin90 = 1<tspan x="0" y="13.2">cos90 = 0</tspan><tspan x="0" y="26.4">tan90 = N/A</tspan></text><text class="cls-2" transform="translate(185.15 202.46)">sin180 = 0<tspan x="0" y="13.2">cos180 =-1</tspan><tspan x="0" y="26.4">tan180 = 0</tspan></text><text class="cls-2" transform="translate(275.07 202.46)">sin270 =-1<tspan x="0" y="13.2">cos270 = 0</tspan><tspan x="0" y="26.4">tan270 = N/A</tspan></text><text class="cls-2" transform="translate(372.4 202.46)">sin360 = 0<tspan x="0" y="13.2">cos360 = 1</tspan><tspan x="0" y="26.4">tan360 = 0</tspan></text><text class="cls-1" transform="translate(2.82 184.6)">BOUNDARY ANGLES</text><text class="cls-2" transform="translate(3.82 341.5)">sin(-<tspan class="cls-3" x="36.7" y="0">Ѳ</tspan><tspan x="44.03" y="0">) = -sin</tspan><tspan class="cls-3" x="102.74" y="0">Ѳ</tspan><tspan x="110.07" y="0"> </tspan><tspan x="0" y="13.2">cos(-</tspan><tspan class="cls-3" x="36.7" y="13.2">Ѳ</tspan><tspan x="44.03" y="13.2" xml:space="preserve">) =  cos</tspan><tspan class="cls-3" x="102.74" y="13.2">Ѳ</tspan><tspan x="110.07" y="13.2"> </tspan><tspan x="0" y="26.4">tan(-</tspan><tspan class="cls-3" x="36.7" y="26.4">Ѳ</tspan><tspan x="44.03" y="26.4">) = -tan</tspan><tspan class="cls-3" x="102.74" y="26.4">Ѳ</tspan><tspan x="110.07" y="26.4" xml:space="preserve">  </tspan></text><text class="cls-1" transform="translate(2.82 323.97)">NEGATIVE RATION</text><text class="cls-2" transform="translate(6.32 415)"><tspan xml:space="preserve">sin  (90 - </tspan><tspan class="cls-3" x="80.74" y="0">Ѳ</tspan><tspan x="88.06" y="0">) = cos</tspan><tspan class="cls-3" x="139.44" y="0">Ѳ</tspan><tspan x="146.77" y="0"> </tspan><tspan x="0" y="13.2" xml:space="preserve">cos  (90 - </tspan><tspan class="cls-3" x="80.74" y="13.2">Ѳ</tspan><tspan x="88.06" y="13.2">) = sin</tspan><tspan class="cls-3" x="139.44" y="13.2">Ѳ</tspan><tspan x="146.77" y="13.2"> </tspan><tspan x="0" y="26.4" xml:space="preserve">tan  (90 - </tspan><tspan class="cls-3" x="80.74" y="26.4">Ѳ</tspan><tspan x="88.06" y="26.4">) = cot</tspan><tspan class="cls-3" x="139.44" y="26.4">Ѳ</tspan></text><text class="cls-2" transform="translate(215.32 415)"><tspan xml:space="preserve">cot  (90 - </tspan><tspan class="cls-3" x="80.74" y="0">Ѳ</tspan><tspan x="88.06" y="0">) = tan</tspan><tspan class="cls-3" x="139.44" y="0">Ѳ</tspan><tspan x="146.77" y="0"> </tspan><tspan x="0" y="13.2">cosec(90 - </tspan><tspan class="cls-3" x="80.74" y="13.2">Ѳ</tspan><tspan x="88.06" y="13.2">) = sec</tspan><tspan class="cls-3" x="139.44" y="13.2">Ѳ</tspan><tspan x="146.77" y="13.2" xml:space="preserve">  </tspan><tspan x="0" y="26.4" xml:space="preserve">sec  (90 - </tspan><tspan class="cls-3" x="80.74" y="26.4">Ѳ</tspan><tspan x="88.06" y="26.4">) = cosec</tspan><tspan class="cls-3" x="154.12" y="26.4">Ѳ</tspan><tspan x="161.45" y="26.4" xml:space="preserve">    </tspan></text><text class="cls-1" transform="translate(5.32 396.89)">COMPLIMENTARY FORMULAS</text><text class="cls-2" transform="translate(6.32 486.33)">sin (ß + µ) = sinßcosµ - sinµcosß<tspan x="0" y="13.2">sin (ß - µ) = sinßcosµ + sinµcosß</tspan><tspan x="0" y="39.6">cos (ß + µ) = cosµcosß + sinµsinß</tspan><tspan x="0" y="52.8">cos (ß - µ) = cosµcosß + sinµsinß</tspan></text><text class="cls-2" transform="translate(271.49 484.67)"><tspan xml:space="preserve">tan (ß + µ) = tanß + tanµ  / 1 - tanßtanµ </tspan><tspan x="0" y="13.2" xml:space="preserve">tan (ß - µ) = tanß - tanµ  / 1 + tanßtanµ    </tspan></text><text class="cls-1" transform="translate(5.32 468.22)">ADDITION ANGLE FORMULAS</text><text class="cls-2" transform="translate(6.32 587.33)">sin (2<tspan class="cls-3" x="44.04" y="0">Ѳ</tspan><tspan x="51.37" y="0">) = 2(sin</tspan><tspan class="cls-3" x="117.42" y="0">Ѳ</tspan><tspan x="124.75" y="0">cos</tspan><tspan class="cls-3" x="146.77" y="0">Ѳ)</tspan><tspan x="0" y="13.2">cos (2</tspan><tspan class="cls-3" x="44.04" y="13.2">Ѳ</tspan><tspan x="51.37" y="13.2">) = cos²</tspan><tspan class="cls-3" x="110.08" y="13.2" xml:space="preserve">Ѳ  -  </tspan><tspan x="131.2" y="13.2">sin²</tspan><tspan class="cls-3" x="160.56" y="13.2">Ѳ</tspan><tspan x="0" y="26.4">tan (2</tspan><tspan class="cls-3" x="44.04" y="26.4">Ѳ</tspan><tspan x="51.37" y="26.4">) = 2tan</tspan><tspan class="cls-3" x="110.08" y="26.4">Ѳ </tspan><tspan x="120.04" y="26.4">/ 1 - tan²</tspan><tspan class="cls-3" x="193.44" y="26.4">Ѳ</tspan></text><text class="cls-1" transform="translate(5.32 569.22)">DOUBLE ANGLE FORMULAS</text><text class="cls-2" transform="translate(6.32 664)"><tspan xml:space="preserve"> a   =   b   =   c    (Dumbells)</tspan><tspan x="0" y="13.2" xml:space="preserve">sinA    sinB    sinC</tspan></text><text class="cls-2" transform="translate(6.32 698.67)">Area = 1/2 ac sinB</text><text class="cls-1" transform="translate(5.32 645.89)">SINE RULES</text><text class="cls-2" transform="translate(6.32 746.5)"><tspan xml:space="preserve">a²= b²+ c²-2bc(cosA)  (Boomerang)</tspan><tspan x="0" y="13.2">cosA = b²+ c²-a²/ 2bc (Doughnut)</tspan></text><text class="cls-1" transform="translate(5.32 728.39)">COSINE RULES</text></svg>